<svg xmlns="http://www.w3.org/2000/svg" viewBox="0 0 120 100" fill="none" stroke="#2e7d7d" stroke-width="1.4" stroke-linecap="round" stroke-linejoin="round">
  <path d="M8 88h104" />
  <rect x="28" y="52" width="64" height="36" rx="2" />
  <line x1="36" y1="60" x2="50" y2="60" />
  <line x1="36" y1="68" x2="50" y2="68" />
  <line x1="36" y1="76" x2="50" y2="76" />
  <line x1="70" y1="60" x2="84" y2="60" />
  <line x1="70" y1="68" x2="84" y2="68" />
  <line x1="70" y1="76" x2="84" y2="76" />
  <circle cx="60" cy="68" r="10" />
  <path d="M56 65 L58 70 L60 64 L62 70 L64 65" fill="none" />
  <line x1="38" y1="52" x2="38" y2="28" />
  <line x1="60" y1="52" x2="60" y2="24" />
  <line x1="82" y1="52" x2="82" y2="28" />
  <circle cx="38" cy="22" r="3.5" />
  <circle cx="60" cy="18" r="3.5" />
  <circle cx="82" cy="22" r="3.5" />
  <path d="M38 22 Q50 10 60 18 T82 22" />
</svg>
